<?xml version="1.0" standalone="no"?>
<!DOCTYPE svg PUBLIC "-//W3C//DTD SVG 20010904//EN"
 "http://www.w3.org/TR/2001/REC-SVG-20010904/DTD/svg10.dtd">
<svg version="1.0" xmlns="http://www.w3.org/2000/svg"
 width="518.000000pt" height="518.000000pt" viewBox="0 0 518.000000 518.000000"
 preserveAspectRatio="xMidYMid meet">
<metadata>
Created by potrace 1.14, written by Peter Selinger 2001-2017
</metadata>
<g transform="translate(0.000000,518.000000) scale(0.100000,-0.100000)"
fill="#000000" stroke="none">
<path d="M2421 5149 c-640 -42 -1250 -326 -1693 -787 -378 -394 -605 -860
-695 -1427 -25 -158 -24 -553 1 -720 42 -274 119 -521 241 -770 380 -776 1115
-1302 1985 -1421 152 -21 480 -24 625 -5 600 76 1108 323 1526 740 414 414
663 922 741 1511 19 143 16 509 -6 655 -85 584 -331 1074 -745 1485 -358 356
-809 595 -1306 695 -210 42 -460 59 -674 44z m499 -45 c825 -107 1551 -615
1933 -1354 140 -270 223 -533 269 -855 17 -118 17 -512 0 -630 -74 -513 -276
-969 -594 -1340 -959 -1117 -2656 -1197 -3712 -175 -408 394 -664 894 -753
1470 -25 161 -25 557 0 720 43 276 122 526 244 770 135 272 267 454 483 670
560 561 1341 826 2130 724z"/>
<path d="M3110 4941 c0 -11 15 -28 35 -40 27 -16 35 -27 35 -49 0 -33 -182
-545 -202 -569 -9 -11 -24 -14 -60 -10 -41 5 -48 3 -53 -14 -4 -11 -5 -22 -3
-24 1 -2 81 -31 177 -65 145 -51 186 -61 242 -62 116 -1 190 37 228 115 41 85
22 165 -57 234 l-37 33 28 0 c43 0 89 24 124 63 58 66 56 151 -4 218 -20 22
-54 49 -75 60 -48 25 -341 129 -362 129 -9 0 -16 -8 -16 -19z m297 -142 c53
-25 76 -61 75 -115 -1 -70 -43 -129 -99 -140 -36 -7 -163 22 -163 36 0 10 78
228 86 242 8 12 46 3 101 -23z m-155 -296 c145 -57 187 -145 122 -259 -31 -55
-80 -78 -147 -71 -67 8 -111 35 -115 71 -4 30 77 276 90 276 4 0 27 -8 50 -17z"/>
<path d="M1787 4888 c-15 -12 -19 -53 -32 -353 -19 -430 -18 -418 -61 -453
-31 -25 -42 -50 -28 -65 5 -5 164 46 242 79 28 11 31 16 23 32 -8 16 -18 18
-60 14 l-50 -4 -6 33 c-3 19 -5 67 -3 108 l3 74 109 39 c60 21 112 37 117 36
14 -5 129 -152 129 -166 0 -7 -13 -21 -30 -30 -22 -13 -28 -22 -24 -37 4 -11
8 -21 9 -23 1 -1 66 19 144 45 123 42 141 51 139 68 -3 17 -11 20 -51 21 -61
1 -57 -3 -327 329 -116 143 -215 261 -219 263 -4 1 -15 -3 -24 -10z m132 -430
c-46 -15 -87 -28 -91 -28 -4 0 -8 64 -8 141 l0 141 91 -113 90 -113 -82 -28z"/>
<path d="M3951 4586 c-10 -12 -8 -22 14 -50 19 -25 25 -43 21 -58 -7 -27 -378
-449 -405 -462 -14 -6 -30 -2 -56 14 -29 18 -38 20 -50 10 -8 -7 -15 -15 -15
-19 0 -9 216 -200 234 -207 7 -3 18 2 25 10 11 13 9 21 -13 47 -14 17 -26 39
-26 49 0 15 133 178 159 194 10 7 71 -59 71 -77 0 -7 -9 -66 -20 -132 -11 -66
-20 -139 -20 -163 0 -50 22 -107 54 -142 13 -14 79 -140 147 -280 67 -140 124
-257 126 -259 2 -2 48 4 104 14 98 18 100 19 97 44 -3 25 -7 26 -81 32 -50 4
-84 12 -96 23 -30 27 -104 192 -96 216 4 13 41 38 107 71 159 80 142 80 183
-1 43 -86 44 -111 5 -147 -28 -26 -29 -30 -16 -48 14 -20 17 -19 125 35 61 30
111 59 111 65 -1 23 -18 32 -64 31 -56 -1 -69 11 -111 106 l-25 58 101 51
c163 81 143 84 196 -26 52 -107 52 -121 -2 -179 -24 -26 -34 -45 -30 -57 4
-11 11 -19 17 -19 8 0 145 70 166 85 6 5 -233 485 -242 485 -28 -1 -37 -16
-26 -45 23 -60 16 -66 -228 -185 -309 -152 -318 -155 -346 -142 -55 25 -69
156 -40 362 l16 115 89 0 c98 0 116 9 173 79 28 34 31 45 31 109 0 64 -3 77
-31 117 -26 38 -289 279 -313 288 -5 1 -14 -4 -20 -12z m194 -217 c73 -64 85
-134 36 -211 -30 -47 -95 -88 -139 -88 -34 0 -85 24 -125 60 l-37 32 39 47
c68 81 173 191 182 191 4 0 24 -14 44 -31z"/>
<path d="M1100 4514 c-118 -68 -180 -152 -180 -248 0 -101 62 -177 162 -198
45 -9 72 -8 177 11 165 30 217 16 256 -65 34 -72 -4 -147 -91 -180 -50 -19
-93 -14 -159 18 -36 18 -46 19 -59 8 -9 -7 -16 -16 -16 -21 0 -14 136 -119
155 -119 9 0 44 14 77 32 191 102 245 293 117 415 -19 17 -47 37 -62 42 -44
17 -134 13 -242 -9 -132 -28 -183 -16 -225 53 -25 41 -25 73 0 114 40 66 125
84 199 42 39 -22 42 -22 58 -6 16 16 14 21 -42 77 -33 33 -64 60 -70 60 -5 0
-30 -12 -55 -26z"/>
<path d="M2530 4142 c0 -5 -48 -14 -107 -21 -126 -14 -208 -32 -318 -68 -520
-168 -915 -608 -1037 -1154 -20 -91 -23 -130 -23 -319 0 -189 3 -228 23 -319
62 -274 193 -531 368 -720 l68 -74 -34 -30 c-19 -16 -85 -67 -145 -112 -61
-46 -116 -95 -123 -109 -8 -19 -19 -26 -40 -26 -34 0 -52 -16 -52 -47 0 -18
-6 -23 -25 -23 -47 0 -82 -59 -53 -88 9 -9 9 -12 0 -12 -57 0 -142 82 -207
198 -22 40 -45 72 -51 72 -22 0 -37 -57 -29 -115 9 -74 41 -190 62 -221 9 -14
37 -37 62 -51 65 -37 81 -53 81 -79 0 -27 62 -84 93 -84 24 0 107 71 108 92 1
28 18 -29 18 -64 1 -27 5 -38 16 -38 25 0 107 82 127 128 10 23 23 42 28 42 6
0 18 17 27 38 10 25 29 46 52 58 20 10 42 31 49 47 7 15 21 27 30 27 27 0 79
36 98 69 10 16 27 31 38 33 12 2 26 14 33 28 6 14 25 38 41 53 l30 29 39 -25
c115 -73 296 -149 430 -181 l71 -18 6 -51 c3 -29 6 -61 6 -72 0 -11 -1 -41 -1
-66 -1 -26 4 -56 10 -67 8 -15 8 -28 -1 -47 -14 -32 4 -145 26 -157 13 -7 13
-13 0 -45 -9 -20 -14 -47 -11 -60 3 -14 -1 -27 -8 -29 -18 -7 -27 -77 -19
-156 l7 -68 46 0 c25 0 66 -5 90 -11 30 -7 46 -7 51 0 3 6 21 -2 43 -20 49
-40 81 -49 217 -56 98 -5 117 -3 128 10 23 27 9 51 -47 79 -56 28 -250 208
-225 208 7 0 21 11 29 24 13 20 15 43 12 118 -3 51 -6 98 -7 103 -1 6 1 31 5
57 4 26 4 55 0 65 -8 20 -8 104 1 171 6 41 7 42 45 42 32 0 40 -4 44 -22 3
-13 19 -79 34 -148 l29 -125 -50 -87 c-62 -108 -64 -122 -20 -126 43 -4 80 20
98 64 13 31 16 33 30 19 14 -14 19 -13 46 2 53 31 55 40 25 93 -15 26 -27 60
-27 74 0 15 -8 31 -20 38 -11 7 -20 20 -20 29 0 9 -11 56 -25 104 -14 48 -24
90 -21 92 2 2 46 13 98 23 52 11 130 31 174 45 112 36 305 133 397 199 l78 56
68 -39 c38 -23 78 -55 92 -75 40 -60 65 -42 48 35 -6 24 -19 58 -29 76 -19 32
-19 32 2 39 16 5 19 12 14 37 -8 39 -25 59 -45 52 -9 -3 3 13 26 37 175 181
324 469 384 740 26 120 36 386 20 513 -99 746 -710 1312 -1458 1352 -68 3
-123 10 -123 15 0 4 -4 8 -10 8 -5 0 -10 -4 -10 -8z m0 -57 c0 -51 -77 -201
-132 -257 -46 -48 -62 -167 -30 -230 17 -32 17 -41 5 -88 -7 -28 -17 -59 -22
-68 -6 -11 -58 -26 -167 -49 -193 -41 -256 -71 -328 -159 -80 -97 -86 -117
-86 -287 0 -182 5 -196 93 -238 82 -39 116 -39 123 0 5 22 13 30 37 35 17 4
41 16 53 27 l22 21 6 -39 c3 -21 11 -139 17 -262 11 -197 10 -225 -3 -232 -9
-5 -21 -22 -28 -38 -6 -17 -23 -37 -36 -46 -13 -8 -24 -23 -24 -31 0 -9 -11
-25 -25 -36 -14 -11 -25 -30 -25 -43 0 -18 -4 -23 -15 -19 -10 4 -18 -3 -24
-19 -6 -14 -16 -29 -23 -34 -8 -4 -25 -24 -38 -43 -35 -53 -70 -88 -127 -131
-29 -22 -55 -50 -59 -64 -3 -14 -14 -25 -27 -27 -16 -2 -23 -11 -25 -33 -2
-16 -10 -35 -17 -41 -17 -13 -35 -58 -35 -88 0 -12 -14 -35 -30 -51 l-30 -29
-41 40 c-129 124 -285 384 -348 579 -99 307 -99 645 0 949 97 295 311 586 562
763 180 127 407 223 607 257 185 31 220 33 220 11z m360 -15 c143 -29 234 -60
375 -129 156 -76 275 -162 400 -286 209 -209 341 -449 413 -750 24 -100 26
-129 27 -320 0 -230 -9 -292 -67 -475 -66 -207 -191 -418 -346 -579 -66 -70
-93 -91 -103 -85 -8 5 -60 36 -114 68 -55 33 -102 61 -104 63 -8 6 27 38 96
90 83 61 106 98 123 195 9 53 16 68 35 76 35 16 100 78 139 131 36 50 82 177
92 256 5 41 14 58 50 95 53 55 60 82 39 144 -16 45 -16 52 0 92 9 25 26 49 38
55 20 11 19 12 -14 28 -29 14 -34 22 -37 54 -3 40 -17 47 -38 20 -7 -10 -16
-14 -21 -10 -4 5 0 13 9 18 13 7 14 13 5 34 -15 31 -31 31 -93 3 -47 -21 -53
-21 -164 -8 -63 7 -137 14 -165 15 -27 1 -81 5 -120 10 l-70 8 -97 90 c-54 49
-98 95 -98 102 0 6 9 20 20 30 27 24 25 35 -4 35 -22 0 -24 3 -19 33 7 46 -19
102 -59 127 -36 23 -69 23 -191 0 -61 -12 -69 -11 -87 5 -17 15 -20 31 -20 99
l0 81 35 23 c22 14 46 43 63 78 26 53 28 55 57 49 52 -12 121 -21 133 -17 27
9 9 20 -41 25 -29 4 -68 12 -85 18 -27 9 -32 16 -32 43 0 17 11 47 23 66 69
102 56 197 -21 157 -15 -8 -44 -20 -65 -26 -37 -12 -38 -12 -97 40 -35 30 -73
75 -90 107 l-30 55 108 -6 c59 -3 154 -15 212 -27z m-315 -31 c13 -24 14 -34
5 -45 -8 -8 -10 -28 -6 -51 19 -109 19 -125 0 -119 -11 3 -40 10 -66 17 -27 6
-48 12 -48 13 0 1 20 41 45 89 25 48 45 97 45 107 0 28 7 25 25 -11z m40 -106
c4 -21 15 -61 25 -90 18 -52 18 -52 -3 -44 -16 6 -21 17 -22 57 -1 27 -7 59
-13 71 -14 26 -15 43 -3 43 5 0 12 -17 16 -37z m137 -103 c22 0 29 -4 25 -14
-3 -8 -9 -30 -12 -50 l-7 -35 -33 22 c-24 16 -38 37 -54 82 -29 82 -27 87 15
38 28 -33 43 -43 66 -43z m141 74 c7 -8 -18 -91 -34 -110 -21 -25 -21 -8 0 33
12 25 16 44 11 53 -13 21 6 41 23 24z m-98 -34 c-3 -5 -12 -10 -18 -10 -7 0
-6 4 3 10 19 12 23 12 15 0z m38 -32 c-9 -18 -22 -55 -29 -83 l-12 -50 -1 40
c-1 43 31 125 49 125 6 0 4 -13 -7 -32z m-205 -381 c0 -7 4 -36 8 -65 l7 -53
-39 26 c-38 25 -51 48 -53 90 -1 18 4 20 37 17 21 -2 39 -9 40 -15z m67 -67
c0 -69 3 -82 23 -102 l22 -23 -102 -27 c-56 -15 -103 -26 -105 -25 -1 2 27 21
62 43 74 44 86 72 67 153 -8 34 -7 48 1 53 27 17 32 5 32 -72z m113 -171 c-18
-51 -5 -136 25 -166 l26 -26 -45 -51 c-49 -53 -87 -121 -98 -172 -5 -23 -12
-30 -29 -30 -18 1 -23 -5 -25 -31 -5 -48 -22 -40 -22 10 0 73 -28 135 -84 189
l-51 48 0 78 c-1 42 -3 83 -6 90 -3 10 30 23 116 47 152 41 156 42 182 44 20
1 21 -1 11 -30z m212 -34 c0 -5 -5 -3 -10 5 -5 8 -10 20 -10 25 0 6 5 3 10 -5
5 -8 10 -19 10 -25z m-965 -55 c3 -5 15 -10 26 -10 16 0 19 -7 19 -47 l0 -48
-47 -1 c-41 -2 -51 -7 -75 -35 -15 -18 -32 -51 -38 -73 -8 -37 -9 -34 -5 25 7
89 31 165 58 184 25 17 53 20 62 5z m350 -69 c-8 -17 -21 -33 -27 -37 -8 -5
-7 1 3 16 8 14 19 31 23 38 15 25 16 11 1 -17z m573 -56 c-3 -3 -20 0 -39 7
l-34 12 30 12 c27 11 31 10 39 -7 5 -10 7 -21 4 -24z m174 -90 c108 -85 125
-95 162 -95 22 0 82 -7 131 -15 50 -8 117 -15 150 -15 72 0 152 -36 147 -67
-10 -69 -22 -97 -74 -169 -97 -138 -212 -219 -339 -243 -76 -13 -108 -4 -291
83 -143 70 -156 78 -150 98 3 13 41 81 84 152 43 71 81 144 84 163 11 59 -1
122 -30 152 -20 21 -23 30 -14 39 7 7 14 12 16 12 2 0 58 -43 124 -95z m-1052
-29 c0 -23 0 -24 -42 -9 -23 8 -53 11 -67 8 -18 -4 -23 -3 -16 4 9 8 25 11
108 19 12 1 17 -5 17 -22z m707 -3 c20 -26 63 -110 63 -124 0 -16 -111 -191
-117 -185 -3 2 -6 38 -8 80 -2 56 0 78 11 87 19 15 18 36 -2 47 -14 8 -14 14
6 60 12 29 25 52 28 52 2 0 11 -8 19 -17z m-60 -125 c-3 -8 -6 -5 -6 6 -1 11
2 17 5 13 3 -3 4 -12 1 -19z m-57 -15 c-1 -24 -2 -26 -11 -10 -5 9 -7 22 -4
27 10 17 15 11 15 -17z m1159 -6 c-29 -20 -89 -56 -89 -53 0 18 26 57 42 61
10 4 18 12 18 18 0 6 7 4 17 -6 9 -9 15 -18 12 -20z m79 -52 c-14 -26 -22 -62
-27 -128 -4 -51 -13 -102 -19 -113 -18 -34 -66 -70 -152 -115 -44 -23 -94 -57
-110 -76 -31 -34 -31 -37 -25 -112 7 -89 -31 -321 -62 -374 -10 -17 -50 -55
-88 -85 -39 -29 -71 -57 -73 -63 -4 -11 -22 -12 -22 -1 0 5 11 14 24 22 27 14
32 60 7 68 -10 3 -12 -2 -7 -21 5 -20 1 -29 -16 -41 -20 -14 -23 -14 -31 0 -6
10 -3 22 9 35 18 20 6 27 -14 7 -9 -9 -12 -9 -12 0 0 7 -5 12 -11 12 -6 0 -8
-7 -5 -16 4 -10 -1 -22 -11 -31 -17 -13 -17 -14 2 -9 15 4 25 -2 38 -26 18
-31 18 -31 -15 -79 -18 -26 -36 -44 -40 -40 -4 3 -12 30 -17 58 -12 63 -36
123 -50 123 -5 0 0 -22 11 -49 13 -29 18 -56 14 -67 -12 -31 -25 4 -36 94 0 2
-7 -4 -16 -12 -8 -9 -22 -16 -30 -16 -17 0 -19 41 -2 58 7 7 -12 4 -45 -7
l-58 -20 -20 32 c-19 30 -21 27 -8 -22 3 -9 -8 -18 -29 -24 -28 -9 -36 -7 -57
13 -33 31 -39 22 -9 -13 22 -26 27 -28 56 -18 40 14 38 14 38 -9 0 -11 6 -36
14 -55 12 -29 12 -34 0 -39 -17 -6 -29 17 -20 39 3 8 1 15 -4 15 -6 0 -10 6
-10 14 0 8 -5 18 -12 22 -8 5 -9 -2 -5 -23 5 -25 2 -32 -18 -41 -23 -11 -25
-9 -31 23 -3 19 -11 35 -16 35 -5 0 -6 -10 -3 -21 7 -21 5 -22 -34 -16 -22 3
-41 1 -41 -4 0 -5 -8 -9 -17 -10 -14 0 -15 -2 -3 -6 22 -9 31 -26 17 -35 -24
-15 -37 -8 -37 22 0 17 -5 30 -11 30 -10 0 -8 -46 4 -125 3 -15 -45 -18 -54
-3 -13 20 -11 98 3 98 7 0 8 3 2 9 -10 10 -73 19 -179 25 l-70 5 69 -9 c38 -5
73 -13 79 -19 13 -13 15 -115 2 -119 -18 -6 -22 42 -6 55 14 11 14 12 -1 13
-10 0 -18 8 -18 18 -1 16 -1 16 -14 0 -17 -23 -22 -23 -31 5 l-8 22 -4 -22
c-3 -15 -12 -23 -26 -24 -21 -2 -21 -2 1 -6 22 -4 24 -8 20 -59 -2 -30 -1 -54
4 -54 4 0 8 -16 8 -35 0 -26 -4 -35 -17 -36 -17 -1 -17 -2 -1 -6 10 -2 21 -15
24 -29 3 -13 10 -24 15 -24 5 0 7 11 3 25 -5 21 -3 25 14 25 15 0 22 -9 27
-33 4 -17 9 -41 11 -52 5 -19 4 -19 -10 -1 -8 10 -19 15 -24 12 -28 -17 -88
82 -116 190 -19 74 -23 509 -6 689 13 136 44 287 69 335 l18 35 86 3 c81 3 87
1 87 -17 0 -11 9 -45 21 -76 23 -61 47 -80 118 -91 38 -6 41 -4 51 21 8 21 6
36 -9 71 -11 24 -18 44 -15 44 2 0 68 -33 147 -72 l142 -73 85 0 c77 0 92 3
160 36 106 51 168 104 240 206 35 48 77 103 94 122 37 40 99 70 143 71 l32 0
-21 -35z m-1254 -17 c-6 -31 -5 -32 8 -14 15 19 15 19 26 0 5 -10 13 -39 17
-64 3 -25 9 -53 11 -62 5 -16 -2 -18 -55 -18 l-61 0 10 26 c6 14 10 54 10 88
0 65 4 76 26 76 10 0 12 -9 8 -32z m1156 -343 c0 -14 -14 -68 -31 -122 -30
-92 -35 -100 -105 -172 -40 -41 -76 -72 -79 -69 -4 3 -2 32 4 63 6 32 8 88 5
124 -5 56 -3 70 12 88 16 20 165 109 187 112 4 1 7 -10 7 -24z m-1353 -47 c-3
-8 -6 -5 -6 6 -1 11 2 17 5 13 3 -3 4 -12 1 -19z m-17 -114 c-7 -49 -13 -219
-15 -377 -2 -159 -7 -292 -10 -295 -12 -12 3 628 16 701 17 94 22 77 9 -29z
m-117 -53 l67 -43 -1 -307 c-1 -315 7 -396 45 -469 21 -41 67 -80 111 -95 25
-9 47 -25 58 -44 17 -29 17 -32 0 -63 l-18 -32 -120 6 c-66 3 -130 8 -142 12
-32 9 -29 32 7 52 34 19 39 33 10 25 -11 -3 -27 1 -36 8 -13 11 -15 27 -9 99
7 83 18 115 36 104 5 -3 9 4 9 15 0 11 -8 24 -17 30 -15 8 -18 28 -21 138 -7
308 -6 297 -23 301 -22 4 -178 -109 -217 -156 -27 -35 -47 -47 -105 -66 -15
-5 -16 -9 -6 -27 11 -22 10 -22 -40 -16 l-51 6 16 -24 c22 -33 11 -58 -34 -78
-22 -9 -44 -28 -50 -42 -7 -14 -27 -35 -46 -46 -19 -11 -38 -31 -43 -45 -8
-24 -8 -24 -78 31 -39 31 -71 60 -73 65 -2 5 7 22 19 39 12 16 25 47 28 67 9
56 31 64 77 26 21 -17 40 -29 42 -27 3 3 -11 31 -31 64 -21 32 -37 62 -37 65
0 11 35 6 55 -7 11 -8 32 -22 47 -31 l27 -18 -15 32 c-9 17 -25 36 -35 43 -32
20 -22 44 36 87 30 22 73 64 94 93 22 29 51 65 65 80 14 15 25 31 25 35 -4 23
5 22 33 -4 24 -22 29 -24 23 -9 -5 11 -9 38 -9 60 -1 38 0 40 29 39 17 0 39
-4 50 -9 18 -8 18 -6 -2 17 -43 47 -22 79 24 36 l24 -22 -16 37 c-20 48 -19
54 10 83 l25 25 58 -48 c31 -26 88 -68 125 -92z m-56 -348 c-5 -46 -2 -81 7
-108 10 -29 11 -56 5 -100 -5 -34 -4 -85 1 -117 5 -31 5 -72 0 -90 -17 -68
-20 -174 -6 -193 10 -15 11 -25 3 -43 -9 -20 -15 -23 -46 -17 -119 22 -337
110 -444 178 -70 45 -76 74 -23 105 19 11 42 34 51 51 8 17 22 31 29 31 25 0
66 41 66 65 0 19 6 24 33 27 24 2 33 8 35 26 2 13 16 29 33 38 17 8 57 41 89
72 50 50 158 139 169 141 2 1 1 -29 -2 -66z m827 -115 c3 -13 1 -27 -3 -31
-12 -12 -31 0 -31 19 0 8 -5 14 -11 14 -11 0 -5 -29 17 -72 13 -25 12 -27 -7
-33 -25 -8 -34 3 -50 59 -12 43 -13 40 26 54 45 16 52 14 59 -10z m74 -68 c7
-28 7 -42 -1 -47 -10 -6 -20 8 -17 22 0 3 -6 13 -15 21 -21 21 -19 44 4 44 13
0 21 -11 29 -40z m-58 0 c0 -11 -4 -20 -10 -20 -5 0 -10 2 -10 4 0 2 -3 11 -6
20 -4 11 -1 16 10 16 9 0 16 -8 16 -20z m-222 -32 c-5 -15 -58 -24 -58 -10 0
15 12 22 38 22 14 0 22 -5 20 -12z m443 -6 c-12 -23 -4 -35 34 -55 17 -8 56
-36 88 -61 l58 -45 -48 -35 c-179 -130 -438 -238 -650 -270 -42 -6 -43 -6 -43
23 0 15 -9 40 -21 55 l-20 26 33 0 c34 1 76 14 213 69 187 75 215 97 310 239
45 68 67 94 46 54z m-657 2 c12 -5 16 -20 16 -60 0 -46 -3 -54 -19 -54 -19 0
-31 34 -31 91 0 30 6 34 34 23z m301 -42 c6 -28 3 -33 -17 -41 -28 -11 -34 -6
-41 35 -5 26 -2 33 16 42 27 12 33 7 42 -36z m155 44 c0 -2 3 -11 6 -20 9 -23
-13 -20 -26 4 -9 16 -8 20 5 20 8 0 15 -2 15 -4z m-37 -28 c7 -24 1 -38 -15
-38 -6 0 -5 7 3 17 12 15 12 16 -3 10 -19 -7 -33 7 -23 23 11 17 32 11 38 -12z
m127 -10 c0 -25 -3 -29 -10 -18 -13 20 -13 50 0 50 6 0 10 -15 10 -32z m-317
-20 c3 -18 2 -36 -2 -39 -12 -13 -51 -20 -51 -10 0 5 8 12 18 14 13 4 11 5 -5
6 -17 1 -23 7 -23 24 0 29 7 37 36 37 17 0 23 -7 27 -32z m135 14 c5 -17 -27
-27 -41 -13 -9 9 -8 14 3 21 18 11 32 8 38 -8z m151 -15 c0 -21 -1 -21 -9 -2
-12 28 -12 37 0 30 6 -3 10 -16 9 -28z m-372 -39 c-23 -15 -35 -8 -39 22 -4
24 -1 30 16 32 25 4 44 -41 23 -54z m349 28 c7 -27 -1 -46 -19 -46 -8 0 -8 3
1 12 17 17 15 29 -3 22 -10 -4 -15 0 -15 15 0 29 28 27 36 -3z m-584 -21 c3
-29 1 -35 -14 -35 -14 0 -18 8 -18 35 0 23 5 35 14 35 8 0 15 -14 18 -35z
m-102 -155 c26 -50 21 -63 -9 -22 -23 33 -51 131 -50 177 0 20 6 7 19 -42 10
-39 28 -90 40 -113z m570 131 c0 -33 -5 -51 -14 -54 -21 -8 -29 45 -8 61 14
11 13 12 -9 12 -23 1 -23 1 -5 15 31 23 36 18 36 -34z m65 19 c0 -12 -10 -29
-22 -37 -22 -15 -23 -14 -23 14 0 31 17 56 35 50 5 -2 10 -14 10 -27z m115 5
c-7 -9 -15 -13 -18 -10 -3 2 1 11 8 20 7 9 15 13 18 10 3 -2 -1 -11 -8 -20z
m-240 -8 c0 -11 -39 -37 -55 -37 -16 0 -1 32 18 40 31 12 37 12 37 -3z m-160
-17 c0 -5 -10 -10 -22 -10 -19 0 -20 2 -8 10 19 13 30 13 30 0z m74 -38 c-17
-13 -17 -14 -1 -9 11 4 20 1 24 -9 7 -18 -13 -34 -42 -34 -17 0 -17 2 -5 10
13 8 13 10 -1 10 -10 0 -20 11 -23 26 -8 30 -8 30 24 42 34 13 52 -14 24 -36z
m271 -1 l-27 -26 4 25 c2 14 9 24 16 22 7 -1 16 6 19 15 5 12 8 13 11 4 2 -7
-8 -25 -23 -40z m-1576 -23 c42 -33 76 -64 76 -68 0 -8 -66 -78 -102 -111 -10
-8 -27 -28 -38 -43 -11 -15 -38 -33 -60 -40 -25 -9 -45 -23 -53 -40 -7 -14
-31 -35 -53 -46 -21 -11 -39 -26 -39 -34 0 -7 -16 -31 -35 -52 -19 -21 -35
-46 -35 -56 0 -10 -16 -34 -35 -55 -31 -33 -35 -34 -41 -17 -30 93 -71 179
-97 204 l-31 30 35 34 c19 19 41 42 49 51 29 31 153 125 164 125 7 0 56 41
110 90 54 50 100 90 103 90 3 0 39 -28 82 -62z m1094 45 c3 -5 7 -21 8 -38 3
-23 0 -30 -15 -33 -14 -3 -17 0 -13 12 4 9 2 16 -3 16 -6 0 -10 11 -10 25 0
24 23 35 33 18z m81 -15 c10 -41 7 -48 -24 -48 -17 0 -30 5 -30 13 0 6 -3 22
-6 35 -6 19 -3 22 24 22 22 0 31 -6 36 -22z m226 2 c0 -21 -34 -45 -50 -35
-16 10 -12 33 8 44 27 16 42 13 42 -9z m120 4 c-17 -19 -50 -37 -50 -27 0 7
48 42 59 43 2 0 -2 -7 -9 -16z m-530 -9 c0 -17 -2 -18 -24 -9 -23 9 -20 24 4
24 11 0 20 -7 20 -15z m50 -6 c0 -24 -23 -21 -28 4 -2 10 3 17 12 17 10 0 16
-9 16 -21z m200 -9 c0 -23 -5 -30 -19 -30 -19 0 -31 18 -31 46 0 8 10 14 25
14 21 0 25 -5 25 -30z m300 -15 c0 -14 -51 -45 -97 -59 -19 -6 -23 -4 -23 16
0 35 20 52 36 30 8 -10 13 -12 14 -5 0 14 51 44 62 36 5 -2 8 -11 8 -18z
m-542 -27 c3 -23 -1 -28 -17 -28 -12 0 -21 6 -21 14 0 8 -3 22 -6 31 -5 13 -2
16 17 13 18 -2 25 -10 27 -30z m392 7 c-13 -16 -40 -21 -40 -7 0 10 42 32 49
26 2 -2 -2 -10 -9 -19z m-340 5 c0 -5 -6 -10 -14 -10 -8 0 -18 5 -21 10 -3 6
3 10 14 10 12 0 21 -4 21 -10z m136 -31 c1 -28 16 -79 23 -79 4 0 5 15 3 34
-3 27 0 34 17 39 17 4 22 -1 27 -29 3 -19 10 -34 16 -34 5 0 6 15 2 35 -5 31
-3 36 21 45 39 15 42 13 50 -22 6 -31 7 -31 15 -11 5 12 18 27 29 33 18 9 21
8 21 -12 0 -19 -14 -29 -73 -55 -124 -54 -253 -80 -254 -50 -1 6 -4 26 -8 43
-7 30 -5 31 18 27 19 -4 28 -14 36 -42 10 -32 10 -30 6 26 -4 52 -2 62 13 66
25 7 37 2 38 -14z m59 11 c-3 -5 -15 -10 -26 -10 -10 0 -19 5 -19 10 0 6 12
10 26 10 14 0 23 -4 19 -10z m-195 -15 c0 -9 -6 -12 -15 -9 -8 4 -15 10 -15
15 0 5 7 9 15 9 8 0 15 -7 15 -15z m63 1 c7 -19 0 -25 -24 -19 -10 3 -19 12
-19 19 0 18 36 18 43 0z m-57 -53 c3 -16 8 -36 11 -45 3 -12 -1 -18 -11 -18
-19 0 -23 6 -31 53 -6 30 -4 37 9 37 9 0 18 -12 22 -27z m34 -127 c0 -17 3
-41 6 -53 6 -21 3 -23 -36 -23 -37 0 -41 2 -34 18 5 9 8 35 8 58 -1 39 0 40
27 36 25 -4 29 -9 29 -36z m-227 -102 l118 -7 -3 -36 c-3 -33 -6 -36 -35 -39
-32 -3 -48 -22 -19 -22 8 0 24 -8 36 -18 23 -19 23 -19 4 -51 -18 -31 -18 -33
-1 -42 21 -12 23 -76 3 -105 -8 -11 -33 -29 -55 -39 -23 -10 -41 -22 -41 -27
0 -10 2 -10 57 3 56 15 63 7 63 -74 0 -96 -1 -97 -140 -97 l-120 0 0 29 c0 15
9 40 20 54 26 33 25 55 -1 59 -17 2 -25 14 -34 49 -14 56 -4 86 30 95 33 8 32
19 -5 34 -24 10 -30 20 -36 58 -8 52 8 72 57 72 47 0 42 18 -7 26 -47 7 -64
27 -64 76 0 17 4 19 28 14 15 -3 80 -9 145 -12z m-1363 -107 c0 -7 -11 2 -25
18 -32 39 -32 58 0 22 14 -15 25 -33 25 -40z"/>
<path d="M3530 1881 c0 -5 -15 -32 -34 -60 -37 -55 -39 -64 -6 -28 29 29 63
97 50 97 -5 0 -10 -4 -10 -9z"/>
<path d="M3330 1825 c0 -4 8 -19 18 -33 10 -15 22 -36 27 -47 4 -12 9 -15 12
-8 5 14 -20 65 -41 82 -9 8 -16 10 -16 6z"/>
<path d="M3416 1800 c9 -50 35 -108 41 -92 3 8 0 19 -6 25 -6 6 -11 23 -11 37
0 14 -7 35 -15 46 -15 18 -16 17 -9 -16z"/>
<path d="M3170 1761 c10 -21 30 -37 30 -26 0 14 -21 45 -31 45 -6 0 -6 -7 1
-19z"/>
<path d="M3252 1759 c-18 -12 -31 -24 -28 -26 5 -5 76 35 76 43 0 9 -16 3 -48
-17z"/>
<path d="M3287 1738 c-45 -32 -66 -58 -47 -58 6 0 10 4 10 9 0 5 23 23 50 41
28 18 50 34 50 36 0 10 -20 1 -63 -28z"/>
<path d="M2540 1648 c0 -18 5 -40 10 -48 7 -11 10 -4 10 27 0 23 -4 45 -10 48
-6 4 -10 -7 -10 -27z"/>
<path d="M2712 1600 c0 -19 2 -27 5 -17 2 9 2 25 0 35 -3 9 -5 1 -5 -18z"/>
<path d="M3275 1613 c4 -10 10 -28 12 -40 5 -22 23 -33 23 -14 0 20 -23 71
-32 71 -6 0 -7 -8 -3 -17z"/>
<path d="M416 3674 c-42 -74 -76 -141 -76 -148 0 -30 31 -25 62 10 24 28 36
34 55 29 22 -5 494 -266 521 -287 18 -15 15 -65 -6 -85 -10 -10 -24 -33 -32
-51 -7 -18 -21 -37 -32 -43 -11 -6 -182 -46 -380 -89 -198 -44 -363 -82 -366
-84 -2 -3 -2 -15 2 -28 5 -18 78 -63 321 -198 174 -96 325 -185 336 -197 11
-11 23 -39 26 -62 5 -34 9 -41 27 -41 21 0 23 8 40 134 10 74 15 139 11 146
-13 20 -38 6 -50 -29 -20 -59 -34 -61 -130 -13 -76 38 -85 45 -85 69 1 36 26
212 31 217 7 5 172 36 196 36 18 0 22 -7 25 -37 2 -30 8 -39 24 -41 25 -4 27
3 45 143 8 63 19 109 31 125 9 14 73 124 141 245 l124 220 -34 42 c-19 23 -54
58 -77 77 -41 33 -45 34 -59 18 -14 -16 -13 -22 19 -71 52 -83 53 -108 9 -188
-54 -97 -71 -114 -104 -102 -14 6 -135 71 -269 146 -257 145 -268 154 -243
209 15 34 14 42 -8 53 -17 10 -27 -4 -95 -125z m201 -794 c-4 -16 -9 -59 -13
-95 -5 -45 -11 -65 -19 -61 -56 21 -236 126 -225 130 18 7 229 53 249 55 10 1
12 -7 8 -29z"/>
<path d="M4186 3791 c-4 -5 -2 -12 3 -15 5 -4 12 -2 15 3 4 5 2 12 -3 15 -5 4
-12 2 -15 -3z"/>
<path d="M4747 3026 c-73 -26 -94 -52 -168 -203 -33 -67 -71 -131 -85 -142
-59 -47 -159 -35 -195 22 -16 25 -19 45 -17 92 4 73 22 101 95 147 52 33 67
63 38 74 -8 4 -53 -6 -99 -20 l-84 -26 -13 -71 c-33 -185 59 -345 206 -357
120 -10 186 45 256 212 56 132 96 176 163 176 64 0 102 -21 116 -66 27 -80 -8
-152 -89 -189 -32 -14 -37 -21 -33 -41 2 -13 8 -24 12 -24 34 0 158 36 168 48
17 22 15 157 -4 221 -26 90 -119 162 -205 161 -13 -1 -41 -7 -62 -14z"/>
<path d="M684 2351 c-76 -35 -102 -80 -163 -286 -25 -84 -40 -107 -85 -129
-156 -74 -251 147 -101 235 34 20 46 51 25 64 -6 4 -47 -6 -91 -22 l-81 -28 5
-80 c6 -101 35 -171 92 -224 80 -74 175 -79 263 -14 41 30 74 96 105 206 29
104 53 145 96 171 42 24 108 25 143 2 29 -19 58 -81 58 -124 -1 -58 -53 -135
-117 -170 -19 -11 -9 -52 13 -52 9 0 49 15 89 34 86 40 91 49 82 157 -6 76
-37 154 -80 205 -58 69 -170 93 -253 55z"/>
<path d="M4830 2345 c0 -14 4 -25 8 -25 5 0 27 -16 50 -36 47 -40 51 -59 28
-154 -10 -44 -17 -55 -32 -53 -11 1 -147 34 -304 73 -196 48 -289 76 -298 88
-9 12 -11 32 -7 65 7 45 6 47 -18 47 -23 0 -26 -7 -66 -167 -33 -131 -39 -168
-29 -174 24 -16 33 -9 55 41 17 39 27 50 45 50 13 0 155 -32 316 -72 l293 -73
-6 -32 c-14 -75 -37 -133 -56 -144 -11 -6 -45 -13 -75 -16 -48 -5 -54 -8 -54
-29 0 -16 7 -25 23 -28 65 -14 180 -36 189 -36 6 0 8 17 4 44 -9 61 105 524
134 545 41 28 25 45 -77 79 -54 18 -104 32 -110 32 -7 0 -13 -11 -13 -25z"/>
</g>
</svg>
