<?xml version="1.0" encoding="iso-8859-1"?>
<!-- Uploaded to: SVG Repo, www.svgrepo.com, Generator: SVG Repo Mixer Tools -->
<svg version="1.1" id="Layer_1" xmlns="http://www.w3.org/2000/svg" xmlns:xlink="http://www.w3.org/1999/xlink" 
	 viewBox="0 0 512 512" xml:space="preserve">
<g>
	<polygon style="fill:#CC582F;" points="511.994,408.747 408.753,512 388.234,491.481 381.886,485.133 375.525,478.772 
		259.156,362.403 238.194,341.441 247.022,236.559 341.447,238.2 	"/>
	<polygon style="fill:#CC582F;" points="273.806,170.559 267.385,267.703 170.553,273.8 43.152,146.399 31.82,135.067 
		25.46,128.707 19.111,122.358 0.006,103.253 103.247,0 122.352,19.105 152.753,49.506 159.102,55.855 170.445,67.198 	"/>
	<path style="fill:#CC582F;" d="M476.239,67.486c9.918,9.918,9.918,25.993,0,35.911L341.447,238.2L238.194,341.441L103.403,476.233
		c-9.918,9.918-25.993,9.918-35.911,0l-31.73-31.719c-9.918-9.918-9.918-26.005,0-35.923L170.553,273.8l103.253-103.241
		L408.597,35.767c9.918-9.918,26.005-9.918,35.923,0L476.239,67.486z"/>
</g>
<g>
	<path style="opacity:0.25;fill:#4D4D4D;enable-background:new    ;" d="M476.239,67.486l-23.957-23.957
		c9.918,9.918,9.918,25.993,0,35.911L317.491,214.244L214.238,317.485L79.446,452.276c-9.918,9.918-25.993,9.918-35.911,0
		l-7.859-7.855c0.03,0.03,0.055,0.064,0.085,0.093l31.73,31.719c9.918,9.918,25.993,9.918,35.911,0l134.792-134.792L341.447,238.2
		l134.792-134.804C486.157,93.479,486.157,77.404,476.239,67.486z"/>
	<g style="opacity:0.25;">
		<polygon style="fill:#4D4D4D;" points="289.937,331.627 362.409,259.162 341.447,238.2 238.194,341.441 259.156,362.403 
			381.886,485.133 408.753,512 439.525,481.216 		"/>
		<polygon style="fill:#4D4D4D;" points="30.778,72.469 0.006,103.253 25.46,128.707 49.512,152.759 170.553,273.8 201.337,243.027 
			56.244,97.934 		"/>
	</g>
	<g style="opacity:0.25;">
		<polygon style="fill:#4D4D4D;" points="135.061,31.814 31.82,135.067 25.46,128.707 19.111,122.358 122.352,19.105 		"/>
		<polygon style="fill:#4D4D4D;" points="159.102,55.855 55.861,159.108 43.152,146.399 146.405,43.158 152.753,49.506 		"/>
		
			<rect x="52.164" y="116.175" transform="matrix(-0.7071 0.7071 -0.7071 -0.7071 302.1848 125.16)" style="fill:#4D4D4D;" width="146.014" height="17.979"/>
		<polygon style="fill:#4D4D4D;" points="491.475,388.228 388.234,491.481 381.886,485.133 375.525,478.772 478.778,375.531 		"/>
	</g>
</g>
</svg>