<?xml version="1.0" encoding="iso-8859-1"?>
<!-- Uploaded to: SVG Repo, www.svgrepo.com, Generator: SVG Repo Mixer Tools -->
<svg height="800px" width="800px" version="1.1" id="Layer_1" xmlns="http://www.w3.org/2000/svg" xmlns:xlink="http://www.w3.org/1999/xlink" 
	 viewBox="0 0 512 512" xml:space="preserve">
<path style="fill:#EE8700;" d="M231.224,428.24c0,0,8.82-25.05,15.296-40.036l82.083-176.029L303.3,200.376l-82.083,176.029
	c-5.583,11.674-20.881,37.524-20.881,37.524c-16.656,26.762-30.519,51.825-33.053,57.258c-5.318,11.405-0.384,24.961,11.02,30.279
	c11.405,5.318,24.961,0.384,30.279-11.02C211.115,485.011,221.429,458.2,231.224,428.24z"/>
<path style="fill:#CC7400;" d="M182.655,478.355c2.534-5.433,16.398-30.496,33.053-57.258c0,0,15.298-25.85,20.881-37.524
	l82.083-176.029l-15.373-7.168l-82.083,176.029c-5.583,11.674-20.881,37.524-20.881,37.524
	c-16.656,26.762-30.519,51.825-33.053,57.258c-5.318,11.405-0.384,24.961,11.02,30.279c2.719,1.268,5.561,1.937,8.383,2.09
	C180.514,496.963,178.606,487.04,182.655,478.355z"/>
<path style="fill:#FFA733;" d="M447.534,133.465c-20.652,44.289-97.412,115.163-141.701,94.51s-39.337-125.01-18.684-169.299
	s73.298-63.45,117.586-42.798S468.186,89.176,447.534,133.465z"/>
<path style="fill:#EE8700;" d="M316.029,72.518c18.482-39.632,62.58-59.118,103.386-47.982c-4.526-3.288-9.42-6.205-14.679-8.657
	c-44.289-20.652-96.934-1.491-117.586,42.798c-20.652,44.289-25.605,148.646,18.684,169.299c4.834,2.254,10.054,3.417,15.546,3.644
	C291.774,198.015,297.744,111.729,316.029,72.518z"/>
<path style="fill:#2488FF;" d="M445.657,137.272c0.638-1.232,12.388-21.619,9.784-48.29c-68.114-16.25-131.439-61.542-137.63-66.13
	c-22.598,14.662-31.317,37.252-31.603,37.903C362.239,115.848,419.611,131.107,445.657,137.272z"/>
<path style="fill:#006DF0;" d="M316.029,72.518c6.301-13.512,15.584-24.677,26.695-33.091
	c-13.727-8.483-22.764-14.982-24.913-16.575c-22.598,14.662-31.317,37.252-31.603,37.903c9.287,6.73,18.291,12.855,26.998,18.453
	C314.111,76.856,315.051,74.616,316.029,72.518z"/>
<path style="fill:#9CDD05;" d="M275.61,98.078c-5.796,33.371-3.211,58.394-3.211,58.394c19.235,12.749,64.923,38.812,108.314,52.152
	c15.637-11.161,30.319-24.877,42.451-39.101C357.507,152.846,283.26,103.927,275.61,98.078z"/>
<path style="fill:#85BB04;" d="M303.787,116.159c-15.168-9.052-25.562-16.082-28.177-18.081
	c-5.796,33.371-3.211,58.394-3.211,58.394c6.821,4.521,16.98,10.719,29.172,17.428C299.881,154.959,300.871,134.646,303.787,116.159
	z"/>
<path style="fill:#FFA733;" d="M311.62,413.857c0,0-13.52-22.858-20.838-37.453l-82.083-176.029l-25.303,11.799l82.083,176.029
	c5.354,11.781,15.323,40.116,15.323,40.116c9.794,29.961,20.082,56.692,22.616,62.125c5.318,11.405,18.874,16.339,30.279,11.02
	c11.405-5.318,16.339-18.874,11.02-30.279C342.184,465.752,328.276,440.618,311.62,413.857z"/>
<path style="fill:#EE8700;" d="M318.792,483.276c-2.534-5.433-12.821-32.165-22.616-62.125c0,0-9.968-28.335-15.322-40.116
	L198.77,205.007l-15.373,7.168l82.083,176.029c5.354,11.781,15.323,40.116,15.323,40.116c9.794,29.961,20.082,56.692,22.616,62.125
	c5.318,11.405,18.874,16.339,30.279,11.02c2.719-1.268,5.058-3.015,6.99-5.079C331.67,496.876,322.842,491.96,318.792,483.276z"/>
<path style="fill:#FFC477;" d="M224.851,58.676c20.652,44.289,25.605,148.646-18.684,169.299s-121.048-50.221-141.701-94.51
	s-1.491-96.934,42.798-117.586C151.554-4.774,204.199,14.387,224.851,58.676z"/>
<path style="fill:#FF9811;" d="M93.634,120.239C75.153,80.605,88.572,34.3,123.332,10.198c-5.428,1.354-10.808,3.227-16.068,5.68
	c-44.289,20.652-63.45,73.297-42.798,117.586s97.412,115.163,141.701,94.51c4.834-2.254,9.081-5.506,12.785-9.567
	C174.179,219.488,111.918,159.45,93.634,120.239z"/>
<path style="fill:#57A4FF;" d="M226.562,62.561c-0.535-1.281-8.599-23.386-30.703-38.535C139.628,65.759,64.227,85.156,56.733,86.95
	c-3.293,26.735,8.407,47.935,8.722,48.572C156.529,112.692,205.097,78.551,226.562,62.561z"/>
<path style="fill:#2488FF;" d="M93.634,120.239c-6.301-13.512-8.887-27.8-8.19-41.72c-15.323,5.062-26.109,7.808-28.71,8.431
	c-3.293,26.735,8.407,47.935,8.722,48.572c11.124-2.789,21.605-5.748,31.489-8.82C95.723,124.497,94.612,122.336,93.634,120.239z"/>
<path style="fill:#B2FA09;" d="M87.233,167.632c21.839,25.89,42.668,39.995,42.668,39.995c22.13-6.541,71.464-24.786,109.574-49.452
	c1.501-19.153,0.432-39.216-2.666-57.653C181.829,140.098,96.63,165.53,87.233,167.632z"/>
<path style="fill:#91CC04;" d="M119.195,157.669c-16.684,5.801-28.751,9.245-31.962,9.962c21.839,25.89,42.668,39.995,42.668,39.995
	c7.849-2.319,19.126-6.117,32.102-11.145C146.408,185.601,131.484,171.785,119.195,157.669z"/>
<path d="M457.622,63.212c-8.777-24.116-26.42-43.369-49.678-54.214c-48.013-22.389-105.288-1.542-127.676,46.471
	c-9.936,21.306-16.067,54.256-16,85.989c0.041,18.97,2.5,51.797,17.179,74.273c0,0-3.686,7.461,2.493,10.298
	c-2.101,0.411-3.988,1.777-4.956,3.853l-1.266,2.717c-0.792,1.697-0.825,3.559-0.248,5.206l-21.469,46.042l-21.469-46.041
	c0.577-1.647,0.544-3.51-0.248-5.206l-1.266-2.717c-0.969-2.077-2.856-3.442-4.956-3.853c6.51-3.344,2.491-10.303,2.491-10.303
	c14.787-22.642,17.184-55.783,17.181-74.82c-0.005-31.547-6.136-64.284-16-85.438c-22.39-48.013-79.666-68.861-127.678-46.472
	C80.798,19.843,63.155,39.096,54.378,63.212c-8.777,24.115-7.638,50.204,3.207,73.462c18.372,39.399,77.368,97.303,124.663,102.233
	c0,0,3.054,6.556,8.426,4.454c-1.101,1.895-1.297,4.281-0.306,6.407l1.266,2.717c0.792,1.697,2.197,2.92,3.83,3.536l36.755,78.821
	c0,0-14.692,38.932-48.836,92.313c-2.26,3.532-0.975,8.262,2.625,10.412c1.22,0.729,6.302,3.104,10.412-2.625
	c14.529-20.253,44.178-82.134,44.178-82.134l7.026,15.065c0,0-13.391,29.691-23.561,57.845l-0.056,0.162
	c-10.238,31.318-20.234,56.912-22.307,61.355c-1.715,3.678-8.973,12.573-20.189,7.347c-7.592-3.537-10.888-12.596-7.348-20.188
	c0.73-1.564,3.094-6.096,7.356-13.72c2.046-3.661,0.737-8.286-2.924-10.332c-3.66-2.046-8.286-0.737-10.332,2.924
	c-3.841,6.873-6.707,12.234-7.862,14.711c-7.078,15.181-0.942,34.364,14.693,40.367c25.225,9.685,36.94-7.338,40.368-14.692
	c2.758-5.914,13.065-32.742,22.95-62.97c0.548-1.549,12.529-38.603,17.587-44.845c0,0,9.794,23.493,40.537,107.814
	c9.949,27.288,36.285,16.598,40.368,14.694c7.354-3.43,25.638-13.726,14.693-40.368c-2.479-6.035-16.683-31.054-33.486-58.058
	c-0.837-1.417-13.571-23.032-20.495-36.824l-17.837-38.253l36.754-78.821c1.633-0.616,3.038-1.839,3.83-3.536l1.266-2.717
	c0.991-2.126,0.796-4.512-0.306-6.407c6.42,2.228,8.426-4.452,8.426-4.452c27.223-2.802,54.713-22.649,69.5-35.061
	c24.163-20.282,45.301-46.021,55.165-67.175C465.26,113.416,466.399,87.326,457.622,63.212z M401.528,22.759
	c34.663,16.19,44.048,52.504,44.819,55.983c-49.439-14.124-95.19-42.455-114.432-55.34
	C353.096,13.101,378.573,12.039,401.528,22.759z M317.791,32.174c15.804,11.064,70.366,47.156,130.461,62.833
	c0.159,11.384-2.128,22.741-6.81,33.44c-23.309-5.775-76.683-21.308-145.627-70.151C301.342,47.818,308.913,39.035,317.791,32.174z
	 M420.525,160.966c-56.791-15.613-119.463-54.614-136.542-66.256c1.579-7.957,3.533-15.435,5.795-22.093
	c66.461,46.53,118.813,63.045,144.29,69.627C430.274,148.327,425.697,154.649,420.525,160.966z M321.694,224.034
	c-0.65-0.026-22.238-9.886-22.594-10.265c-8.357-8.867-14.328-23.717-17.363-42.476c20.136,12.077,50.547,28.198,81.804,39.557
	C348.938,219.38,334.366,224.559,321.694,224.034z M188.267,224.068c-12.475-0.094-26.72-5.532-40.964-14.084
	c22.193-7.664,54.067-20.592,82.838-37.222c-2.851,16.669-8.252,31.16-16.799,40.53C212.905,213.772,189.3,224.076,188.267,224.068z
	 M217.085,60.106c-6.838,4.957-15.556,10.956-26.492,17.49c-3.6,2.15-4.787,6.819-2.624,10.412
	c3.072,5.101,9.192,3.354,10.412,2.624c9.832-5.873,17.933-11.324,24.536-16.017c2.223,6.82,4.126,14.398,5.643,22.429
	c-48.448,33.457-118.57,56.391-138.5,62.003c-5.106-6.337-9.583-12.636-13.224-18.637c26.894-7.204,52.214-15.97,75.378-26.119
	c3.841-1.682,5.59-6.16,3.908-10.001c-1.683-3.841-6.162-5.592-10.001-3.908c-23.371,10.238-49.04,19.041-76.378,26.201
	c-4.41-10.791-6.383-22.211-5.933-33.613c18.563-4.974,81.334-23.566,132.012-59.543C204.501,40.494,211.813,49.483,217.085,60.106z
	 M110.473,22.759c23.706-11.054,50.085-9.575,71.657,1.677c-42.622,28.8-93.756,45.631-115.961,52.078
	c0.684-2.725,1.504-5.433,2.478-8.11C76.037,48.101,90.892,31.89,110.473,22.759z M101.009,171.654
	c25.925-7.877,84.7-28.403,130.055-58.003c1.512,13.185,1.994,26.944,1.21,40.106c-35.115,22.058-79.023,38.646-100.833,45.462
	C120.628,191.055,110.215,181.525,101.009,171.654z M283.996,379.807c7.352,14.661,20.532,36.972,21.09,37.915l0.089,0.147
	c17.41,27.973,30.408,52.173,32.663,56.525c6.739,13.013-3.67,18.475-7.348,20.189c-3.677,1.716-14.131,4.466-20.189-7.347
	c-2.237-4.363-12.061-30.015-22.28-61.276l-0.055-0.161c-0.412-1.169-10.142-28.788-15.604-40.805l-62.25-133.492l11.54-5.382
	l62.249,133.493L283.996,379.807z M264.377,301.813l25.97-55.693l11.54,5.382l-30.485,65.377L264.377,301.813z M379.468,200.268
	c-39.527-12.74-80.516-35.76-99.722-48.072c-0.972-10.496-1.144-28.324,1.587-41.012c22.67,14.782,76.217,46.649,128.08,62.377
	C400.286,183.195,390.056,192.408,379.468,200.268z"/>
</svg>